#Comment line ignore any data following # character 
#Hierarchical Translation and Rotation (.htr) file 
[Header]	
#Header keywords are followed by a single value 
FileType HTR		#Single word string
DataType HTRS		#Translation followed by rotation and scale data
FileVersion 1		#integer
NumSegments 84		#integer
NumFrames 2		#integer
DataFrameRate 30		#integer, data frame rate in this file
EulerRotationOrder ZYX
CalibrationUnits mm
RotationUnits Degrees
GlobalAxisofGravity Y
BoneLengthAxis Y
ScaleFactor 1.00
[SegmentNames&Hierarchy]
#CHILD	PARENT
MASTER GLOBAL
root MASTER
chest root
L_mid_tent01 root
R_mid_tent01 root
spine01 root
Bip01_Neck chest
L_humerus chest
R_humerus chest
weapon_bone chest
Bip01_Head Bip01_Neck
eye_left_bone Bip01_Head
eye_right_bone Bip01_Head
L_forearm L_humerus
L_front_hand L_forearm
L_weapon_bone L_forearm
L_front_hand01_01 L_front_hand
L_front_hand02_01 L_front_hand
L_front_hand03_01 L_front_hand
L_front_hand01_02 L_front_hand01_01
L_front_hand02_02 L_front_hand02_01
L_front_hand03_02 L_front_hand03_01
R_forearm R_humerus
R_front_hand R_forearm
R_weapon_bone R_forearm
R_front_hand01_01 R_front_hand
R_front_hand02_01 R_front_hand
R_front_hand03_01 R_front_hand
R_front_hand01_02 R_front_hand01_01
R_front_hand02_02 R_front_hand02_01
R_front_hand03_02 R_front_hand03_01
null_rope01_connect L_mid_tent01
Rope1_Seg01 null_rope01_connect
Rope1_Seg02 Rope1_Seg01
Rope1_Seg03 Rope1_Seg02
Rope1_Seg04 Rope1_Seg03
Rope1_Seg05 Rope1_Seg04
Rope1_Seg06 Rope1_Seg05
Rope1_Seg07 Rope1_Seg06
Rope1_Seg09 Rope1_Seg07
L_mid_hand01 Rope1_Seg09
L_mid_hand02 Rope1_Seg09
L_mid_hand03 Rope1_Seg09
null_rope02_connect R_mid_tent01
Rope2_Seg01 null_rope02_connect
Rope2_Seg02 Rope2_Seg01
Rope2_Seg03 Rope2_Seg02
Rope2_Seg04 Rope2_Seg03
Rope2_Seg05 Rope2_Seg04
Rope2_Seg06 Rope2_Seg05
Rope2_Seg07 Rope2_Seg06
Rope2_Seg09 Rope2_Seg07
R_mid_hand01 Rope2_Seg09
R_mid_hand02 Rope2_Seg09
R_mid_hand03 Rope2_Seg09
spine02 spine01
spine03 spine02
pelvis spine03
null_rope03_connect pelvis
null_rope04_connect pelvis
Rope3_Seg01 null_rope03_connect
Rope3_Seg02 Rope3_Seg01
Rope3_Seg03 Rope3_Seg02
Rope3_Seg04 Rope3_Seg03
Rope3_Seg05 Rope3_Seg04
Rope3_Seg06 Rope3_Seg05
Rope3_Seg07 Rope3_Seg06
Rope3_Seg08 Rope3_Seg07
Rope3_Seg09 Rope3_Seg08
R_rear_hand01 Rope3_Seg09
R_rear_hand02 Rope3_Seg09
R_rear_hand03 Rope3_Seg09
Rope4_Seg01 null_rope04_connect
Rope4_Seg02 Rope4_Seg01
Rope4_Seg03 Rope4_Seg02
Rope4_Seg04 Rope4_Seg03
Rope4_Seg05 Rope4_Seg04
Rope4_Seg06 Rope4_Seg05
Rope4_Seg07 Rope4_Seg06
Rope4_Seg08 Rope4_Seg07
Rope4_Seg09 Rope4_Seg08
L_rear_hand01 Rope4_Seg09
L_rear_hand02 Rope4_Seg09
L_rear_hand03 Rope4_Seg09
[BasePosition]
#SegmentName Tx, Ty, Tz, Rx, Ry, Rz, BoneLength
MASTER 0.000000 0.000000 0.000000 -90.000000 0.000000 0.000000 10.000000 
root 0.000000 0.000000 0.000000 0.000000 0.000000 0.000000 10.000000 
chest 0.000000 0.000000 0.000000 0.000000 0.000000 0.000000 10.000000 
L_mid_tent01 0.000000 0.000000 0.000000 0.000000 0.000000 0.000000 10.000000 
R_mid_tent01 0.000000 0.000000 0.000000 0.000000 0.000000 0.000000 10.000000 
spine01 0.000000 0.000000 0.000000 0.000000 0.000000 0.000000 10.000000 
Bip01_Neck 0.000000 0.000000 0.000000 0.000000 0.000000 0.000000 10.000000 
L_humerus 0.000000 0.000000 0.000000 0.000000 0.000000 0.000000 10.000000 
R_humerus 0.000000 0.000000 0.000000 0.000000 0.000000 0.000000 10.000000 
weapon_bone 0.000000 0.000000 0.000000 0.000000 0.000000 0.000000 10.000000 
Bip01_Head 0.000000 0.000000 0.000000 0.000000 0.000000 0.000000 10.000000 
eye_left_bone 0.000000 0.000000 0.000000 0.000000 0.000000 0.000000 10.000000 
eye_right_bone 0.000000 0.000000 0.000000 0.000000 0.000000 0.000000 10.000000 
L_forearm 0.000000 0.000000 0.000000 0.000000 0.000000 0.000000 10.000000 
L_front_hand 0.000000 0.000000 0.000000 0.000000 0.000000 0.000000 10.000000 
L_weapon_bone 0.000000 0.000000 0.000000 0.000000 0.000000 0.000000 10.000000 
L_front_hand01_01 0.000000 0.000000 0.000000 0.000000 0.000000 0.000000 10.000000 
L_front_hand02_01 0.000000 0.000000 0.000000 0.000000 0.000000 0.000000 10.000000 
L_front_hand03_01 0.000000 0.000000 0.000000 0.000000 0.000000 0.000000 10.000000 
L_front_hand01_02 0.000000 0.000000 0.000000 0.000000 0.000000 0.000000 10.000000 
L_front_hand02_02 0.000000 0.000000 0.000000 0.000000 0.000000 0.000000 10.000000 
L_front_hand03_02 0.000000 0.000000 0.000000 0.000000 0.000000 0.000000 10.000000 
R_forearm 0.000000 0.000000 0.000000 0.000000 0.000000 0.000000 10.000000 
R_front_hand 0.000000 0.000000 0.000000 0.000000 0.000000 0.000000 10.000000 
R_weapon_bone 0.000000 0.000000 0.000000 0.000000 0.000000 0.000000 10.000000 
R_front_hand01_01 0.000000 0.000000 0.000000 0.000000 0.000000 0.000000 10.000000 
R_front_hand02_01 0.000000 0.000000 0.000000 0.000000 0.000000 0.000000 10.000000 
R_front_hand03_01 0.000000 0.000000 0.000000 0.000000 0.000000 0.000000 10.000000 
R_front_hand01_02 0.000000 0.000000 0.000000 0.000000 0.000000 0.000000 10.000000 
R_front_hand02_02 0.000000 0.000000 0.000000 0.000000 0.000000 0.000000 10.000000 
R_front_hand03_02 0.000000 0.000000 0.000000 0.000000 0.000000 0.000000 10.000000 
null_rope01_connect 0.000000 0.000000 0.000000 0.000000 0.000000 0.000000 10.000000 
Rope1_Seg01 0.000000 0.000000 0.000000 0.000000 0.000000 0.000000 10.000000 
Rope1_Seg02 0.000000 0.000000 0.000000 0.000000 0.000000 0.000000 10.000000 
Rope1_Seg03 0.000000 0.000000 0.000000 0.000000 0.000000 0.000000 10.000000 
Rope1_Seg04 0.000000 0.000000 0.000000 0.000000 0.000000 0.000000 10.000000 
Rope1_Seg05 0.000000 0.000000 0.000000 0.000000 0.000000 0.000000 10.000000 
Rope1_Seg06 0.000000 0.000000 0.000000 0.000000 0.000000 0.000000 10.000000 
Rope1_Seg07 0.000000 0.000000 0.000000 0.000000 0.000000 0.000000 10.000000 
Rope1_Seg09 0.000000 0.000000 0.000000 0.000000 0.000000 0.000000 10.000000 
L_mid_hand01 0.000000 0.000000 0.000000 0.000000 0.000000 0.000000 10.000000 
L_mid_hand02 0.000000 0.000000 0.000000 0.000000 0.000000 0.000000 10.000000 
L_mid_hand03 0.000000 0.000000 0.000000 0.000000 0.000000 0.000000 10.000000 
null_rope02_connect 0.000000 0.000000 0.000000 0.000000 0.000000 0.000000 10.000000 
Rope2_Seg01 0.000000 0.000000 0.000000 0.000000 0.000000 0.000000 10.000000 
Rope2_Seg02 0.000000 0.000000 0.000000 0.000000 0.000000 0.000000 10.000000 
Rope2_Seg03 0.000000 0.000000 0.000000 0.000000 0.000000 0.000000 10.000000 
Rope2_Seg04 0.000000 0.000000 0.000000 0.000000 0.000000 0.000000 10.000000 
Rope2_Seg05 0.000000 0.000000 0.000000 0.000000 0.000000 0.000000 10.000000 
Rope2_Seg06 0.000000 0.000000 0.000000 0.000000 0.000000 0.000000 10.000000 
Rope2_Seg07 0.000000 0.000000 0.000000 0.000000 0.000000 0.000000 10.000000 
Rope2_Seg09 0.000000 0.000000 0.000000 0.000000 0.000000 0.000000 10.000000 
R_mid_hand01 0.000000 0.000000 0.000000 0.000000 0.000000 0.000000 10.000000 
R_mid_hand02 0.000000 0.000000 0.000000 0.000000 0.000000 0.000000 10.000000 
R_mid_hand03 0.000000 0.000000 0.000000 0.000000 0.000000 0.000000 10.000000 
spine02 0.000000 0.000000 0.000000 0.000000 0.000000 0.000000 10.000000 
spine03 0.000000 0.000000 0.000000 0.000000 0.000000 0.000000 10.000000 
pelvis 0.000000 0.000000 0.000000 0.000000 0.000000 0.000000 10.000000 
null_rope03_connect 0.000000 0.000000 0.000000 0.000000 0.000000 0.000000 10.000000 
null_rope04_connect 0.000000 0.000000 0.000000 0.000000 0.000000 0.000000 10.000000 
Rope3_Seg01 0.000000 0.000000 0.000000 0.000000 0.000000 0.000000 10.000000 
Rope3_Seg02 0.000000 0.000000 0.000000 0.000000 0.000000 0.000000 10.000000 
Rope3_Seg03 0.000000 0.000000 0.000000 0.000000 0.000000 0.000000 10.000000 
Rope3_Seg04 0.000000 0.000000 0.000000 0.000000 0.000000 0.000000 10.000000 
Rope3_Seg05 0.000000 0.000000 0.000000 0.000000 0.000000 0.000000 10.000000 
Rope3_Seg06 0.000000 0.000000 0.000000 0.000000 0.000000 0.000000 10.000000 
Rope3_Seg07 0.000000 0.000000 0.000000 0.000000 0.000000 0.000000 10.000000 
Rope3_Seg08 0.000000 0.000000 0.000000 0.000000 0.000000 0.000000 10.000000 
Rope3_Seg09 0.000000 0.000000 0.000000 0.000000 0.000000 0.000000 10.000000 
R_rear_hand01 0.000000 0.000000 0.000000 0.000000 0.000000 0.000000 10.000000 
R_rear_hand02 0.000000 0.000000 0.000000 0.000000 0.000000 0.000000 10.000000 
R_rear_hand03 0.000000 0.000000 0.000000 0.000000 0.000000 0.000000 10.000000 
Rope4_Seg01 0.000000 0.000000 0.000000 0.000000 0.000000 0.000000 10.000000 
Rope4_Seg02 0.000000 0.000000 0.000000 0.000000 0.000000 0.000000 10.000000 
Rope4_Seg03 0.000000 0.000000 0.000000 0.000000 0.000000 0.000000 10.000000 
Rope4_Seg04 0.000000 0.000000 0.000000 0.000000 0.000000 0.000000 10.000000 
Rope4_Seg05 0.000000 0.000000 0.000000 0.000000 0.000000 0.000000 10.000000 
Rope4_Seg06 0.000000 0.000000 0.000000 0.000000 0.000000 0.000000 10.000000 
Rope4_Seg07 0.000000 0.000000 0.000000 0.000000 0.000000 0.000000 10.000000 
Rope4_Seg08 0.000000 0.000000 0.000000 0.000000 0.000000 0.000000 10.000000 
Rope4_Seg09 0.000000 0.000000 0.000000 0.000000 0.000000 0.000000 10.000000 
L_rear_hand01 0.000000 0.000000 0.000000 0.000000 0.000000 0.000000 10.000000 
L_rear_hand02 0.000000 0.000000 0.000000 0.000000 0.000000 0.000000 10.000000 
L_rear_hand03 0.000000 0.000000 0.000000 0.000000 0.000000 0.000000 10.000000 
#Beginning of Data. Separated by tabs
#Fr	Tx	Ty	Tz	Rx	Ry	Rz	SF
[MASTER]
6 0.000000 0.000000 0.000000 0.001660 0.001660 0.001660 0.000000
7 0.000000 0.000000 0.000000 0.001660 0.001660 0.001660 0.000000
[root]
6 -14.876718 -72.566223 1470.710693 -91.629707 -27.676090 -90.148117 1472.575073
7 -14.613257 -74.542130 1462.502686 -91.629707 -27.676079 -90.148117 1464.473999
[chest]
6 -84.512650 -34.090519 0.000000 -1.888050 0.943089 -178.206696 91.129311
7 -84.512650 -34.090519 0.000000 -1.888050 0.943089 -178.206696 91.129311
[L_mid_tent01]
6 27.299519 22.177582 -249.918289 4.360905 29.289541 83.127914 252.381180
7 27.299522 22.177584 -249.918289 3.414396 26.545237 81.755119 252.381180
[R_mid_tent01]
6 23.228794 24.509907 226.238495 158.790665 -43.151184 89.593056 228.744751
7 23.228794 24.509907 226.238495 158.493637 -42.365238 89.900620 228.744751
[spine01]
6 -0.361383 -0.195265 0.000000 0.001845 0.001451 13.654368 0.410763
7 -0.361383 -0.195265 0.000000 0.001845 0.001451 13.654368 0.410763
[Bip01_Neck]
6 165.484543 71.581718 0.000119 176.643677 -1.657967 43.431915 180.302734
7 165.484543 71.581718 0.000119 176.643677 -1.657967 43.431911 180.302734
[L_humerus]
6 -13.983130 -135.272980 -120.471481 156.317398 70.210068 -112.010254 181.680161
7 -13.983130 -135.272980 -120.471481 156.317398 70.210068 -112.010254 181.680161
[R_humerus]
6 -13.983309 -135.273102 125.287651 -172.382263 -66.903831 -92.553993 184.909012
7 -13.983309 -135.273102 125.287651 -172.382263 -66.903831 -92.553993 184.909012
[weapon_bone]
6 235.964890 -300.705902 0.000000 0.000000 -89.951546 -128.212341 382.234833
7 235.964890 -300.705902 0.000000 0.000000 -89.951546 -128.212341 382.234833
[Bip01_Head]
6 213.434860 185.741867 11.435186 4.983087 9.611635 -43.777290 283.170013
7 213.432953 185.747147 11.366834 4.982295 8.427112 -43.807419 283.169281
[eye_left_bone]
6 -24.626970 125.451866 -64.772606 0.000000 -90.000000 -99.840431 143.318359
7 -24.626970 125.451866 -64.772606 0.000000 -90.000000 -99.840431 143.318359
[eye_right_bone]
6 -24.626970 125.451866 64.327362 0.000000 -89.965736 80.156380 143.117676
7 -24.626970 125.451866 64.327362 0.000000 -89.965736 80.156380 143.117676
[L_forearm]
6 322.776093 0.000000 -0.000119 0.000119 -0.002344 -95.807457 322.776093
7 322.776093 0.000000 -0.000119 0.000119 -0.002344 -95.807457 322.776093
[L_front_hand]
6 241.149185 -0.042021 -3.300071 -178.667953 -1.835447 -27.422350 241.171753
7 241.149185 -0.042021 -3.300071 -178.667953 -1.835447 -27.422342 241.171753
[L_weapon_bone]
6 156.183838 0.000000 0.000000 0.000014 0.000007 0.000001 156.183838
7 156.183838 0.000000 0.000000 0.000014 0.000007 0.000001 156.183838
[L_front_hand01_01]
6 86.095154 20.947098 -0.655860 -0.349230 -0.490139 73.139862 88.609184
7 86.095154 20.947098 -0.655860 -0.335131 -0.500211 71.723785 88.609184
[L_front_hand02_01]
6 86.935165 -11.437475 24.513514 151.025055 -58.854893 -57.448074 91.046425
7 86.935165 -11.437475 24.513514 149.028946 -58.148323 -55.100948 91.046425
[L_front_hand03_01]
6 86.637497 -14.123976 -20.424902 -150.781433 57.074539 -58.996449 90.126129
7 86.637497 -14.123976 -20.424902 -148.918808 56.366669 -56.764694 90.126129
[L_front_hand01_02]
6 71.020905 -0.000179 0.000030 0.000318 -0.002326 -105.574486 71.020905
7 71.020905 -0.000179 0.000030 0.000317 -0.002326 -105.537254 71.020905
[L_front_hand02_02]
6 71.020927 -0.000119 0.000060 0.000318 -0.002326 -105.574486 71.020927
7 71.020927 -0.000119 0.000060 0.000317 -0.002326 -105.537254 71.020927
[L_front_hand03_02]
6 71.020905 -0.000060 0.000060 0.000318 -0.002326 -105.574486 71.020905
7 71.020905 -0.000060 0.000060 0.000317 -0.002326 -105.537254 71.020905
[R_forearm]
6 322.776428 -0.000060 0.000030 0.209504 0.012586 -94.339050 322.776428
7 322.776428 -0.000060 0.000030 0.209504 0.012586 -94.339050 322.776428
[R_front_hand]
6 238.847015 -0.006795 2.210259 -2.635298 -10.645461 -26.312506 238.857239
7 238.847015 -0.006795 2.210259 -2.635298 -10.645461 -26.312506 238.857239
[R_weapon_bone]
6 155.664093 0.002503 -0.000030 0.003487 0.001180 -90.988930 155.664078
7 155.664093 0.002503 -0.000030 0.003487 0.001180 -90.988930 155.664078
[R_front_hand01_01]
6 87.624611 14.231146 22.918642 -151.601074 -59.040489 58.224773 91.683487
7 87.624611 14.231146 22.918642 -149.707169 -58.394512 56.007454 91.683487
[R_front_hand02_01]
6 89.356956 14.367283 -19.491137 151.761566 57.399368 60.393955 92.579636
7 89.356956 14.367283 -19.491137 149.983459 56.758793 58.275940 92.579636
[R_front_hand03_01]
6 87.286232 -22.307278 -0.143439 0.146836 -0.431871 -73.769867 90.091743
7 87.286232 -22.307278 -0.143439 0.134949 -0.432464 -72.452232 90.091743
[R_front_hand01_02]
6 71.020905 0.000060 0.000119 0.002323 -0.000334 106.381714 71.020905
7 71.020905 0.000060 0.000119 0.002323 -0.000334 106.381714 71.020905
[R_front_hand02_02]
6 71.020844 -0.000030 -0.000119 0.002323 -0.000334 106.381714 71.020836
7 71.020844 -0.000030 -0.000119 0.002323 -0.000334 106.381714 71.020836
[R_front_hand03_02]
6 71.020905 0.000000 0.000030 0.002323 -0.000334 106.381714 71.020905
7 71.020905 0.000000 0.000030 0.002323 -0.000334 106.381714 71.020905
[null_rope01_connect]
6 328.732483 0.000000 -0.000238 -137.141724 -58.743629 172.918671 328.732483
7 328.732483 0.000000 -0.000238 -137.096848 -61.580112 173.903259 328.732483
[Rope1_Seg01]
6 -0.000038 -0.000114 0.000099 118.972061 34.182930 152.678299 0.000156
7 -0.000038 -0.000114 0.000099 119.014832 32.320812 153.817093 0.000156
[Rope1_Seg02]
6 139.999863 -0.000179 0.000000 0.874991 -10.962178 3.018460 139.999863
7 139.999863 -0.000179 0.000000 0.894061 -9.796862 2.680306 139.999863
[Rope1_Seg03]
6 139.999924 0.000060 -0.000060 -1.834151 -21.315002 6.001357 139.999924
7 139.999924 0.000060 -0.000060 -1.133049 -18.976006 5.613776 139.999924
[Rope1_Seg04]
6 139.999924 -0.000060 -0.000119 -16.340481 -37.412521 7.233143 139.999924
7 139.999924 -0.000060 -0.000119 -16.049509 -39.269321 8.255301 139.999924
[Rope1_Seg05]
6 139.999832 0.000119 -0.000060 -1.538500 -8.876666 8.990300 139.999832
7 139.999832 0.000119 -0.000060 -6.926167 -13.261598 7.205710 139.999832
[Rope1_Seg06]
6 139.999954 0.000119 -0.000060 11.383036 2.297145 8.764099 139.999954
7 139.999954 0.000119 -0.000060 12.872643 3.254283 9.220462 139.999954
[Rope1_Seg07]
6 139.999985 0.000060 0.000000 3.020307 -0.791289 3.602986 139.999985
7 139.999985 0.000060 0.000000 3.084090 -0.658405 3.556656 139.999985
[Rope1_Seg09]
6 121.602913 0.000119 -0.000089 -89.793175 -1.359789 0.847147 121.602913
7 121.602913 0.000119 -0.000089 -89.793175 -1.359789 0.847147 121.602913
[L_mid_hand01]
6 103.859421 1.038730 8.195221 112.493240 -49.600185 -18.031643 104.187431
7 103.859421 1.038730 8.195221 110.549706 -45.072773 -15.392938 104.187431
[L_mid_hand02]
6 105.572853 -4.139662 -10.864139 -152.303986 36.371010 -47.886745 106.211075
7 105.572853 -4.139662 -10.864139 -149.303925 33.991974 -42.687023 106.211075
[L_mid_hand03]
6 104.641464 17.579376 -3.913581 -12.027911 14.512395 53.523804 106.179977
7 104.641464 17.579376 -3.913581 -13.209491 13.449579 48.630810 106.179977
[null_rope02_connect]
6 328.732849 0.000179 -0.000119 -121.640450 44.387486 22.127464 328.732849
7 328.732849 0.000179 -0.000119 -121.175491 44.953835 22.950367 328.732849
[Rope2_Seg01]
6 -0.000070 0.000134 0.000153 -59.156979 34.530079 29.930271 0.000214
7 -0.000069 0.000134 0.000153 -59.019329 33.425507 29.207695 0.000214
[Rope2_Seg02]
6 139.999741 -0.000060 -0.000119 -1.047582 -6.949915 5.349182 139.999756
7 139.999741 -0.000060 -0.000119 -1.099309 -6.382834 5.246187 139.999756
[Rope2_Seg03]
6 140.000107 0.000030 0.000000 -1.375479 -10.967380 8.722845 140.000107
7 140.000107 0.000030 0.000000 -1.457483 -10.437843 8.760124 140.000107
[Rope2_Seg04]
6 139.999802 0.000000 -0.000060 -1.320674 -17.107874 15.243447 139.999802
7 139.999802 0.000000 -0.000060 -1.394006 -16.252333 16.134996 139.999802
[Rope2_Seg05]
6 139.999985 -0.000060 0.000119 -2.269408 -24.392403 12.508459 139.999985
7 139.999985 -0.000060 0.000119 -2.506146 -25.821171 13.642517 139.999985
[Rope2_Seg06]
6 139.999893 -0.000030 -0.000119 -0.797634 -8.378953 3.393049 139.999893
7 139.999893 -0.000030 -0.000119 -1.123428 -8.865880 3.373236 139.999893
[Rope2_Seg07]
6 139.999893 0.000060 -0.000060 0.055262 -3.798677 1.815970 139.999893
7 139.999893 0.000060 -0.000060 0.013883 -3.887107 1.827276 139.999893
[Rope2_Seg09]
6 121.338966 0.000089 -0.000060 33.793236 -1.359788 -0.847141 121.338966
7 121.338966 0.000089 -0.000060 33.793236 -1.359788 -0.847141 121.338966
[R_mid_hand01]
6 104.680779 11.144459 -10.335981 -25.740593 41.350704 56.606117 105.778534
7 104.680779 11.144459 -10.335981 -28.447895 39.731529 52.443096 105.778534
[R_mid_hand02]
6 104.070427 2.443552 8.231699 61.371151 -58.827457 25.571609 104.424065
7 104.070427 2.443552 8.231699 63.907383 -55.672989 22.555904 104.424065
[R_mid_hand03]
6 106.028137 -11.221827 -5.996406 -174.179749 14.727765 -65.439743 106.788818
7 106.028137 -11.221827 -5.996406 -173.262527 14.339042 -61.789948 106.788818
[spine02]
6 129.756927 0.001550 0.000119 -1.023899 -3.926965 6.770993 129.756927
7 129.756927 0.001550 0.000119 -1.023899 -3.926964 6.770991 129.756927
[spine03]
6 78.613846 0.087372 -4.898873 1.040681 4.146420 4.212376 78.766380
7 78.613846 0.087372 -4.898873 1.040681 4.146420 4.212376 78.766380
[pelvis]
6 169.435242 0.051022 0.000000 0.019518 -0.190233 -10.721436 169.435257
7 169.435242 0.051022 0.000000 0.019518 -0.190233 -10.721436 169.435257
[null_rope03_connect]
6 -1.257226 -2.466202 137.391083 -148.996323 -87.995132 -107.160522 137.418976
7 -1.257226 -2.466202 137.391083 -148.996368 -87.995132 -107.160530 137.418976
[null_rope04_connect]
6 -1.259640 -2.480268 -137.844437 -148.996323 -87.995132 -107.160522 137.872513
7 -1.259640 -2.480268 -137.844437 -148.996368 -87.995132 -107.160530 137.872513
[Rope3_Seg01]
6 0.000000 0.000000 0.000000 -144.233261 -39.231915 -61.022789 0.000000
7 0.000000 0.000000 0.000000 -144.875732 -39.593437 -60.239105 0.000000
[Rope3_Seg02]
6 139.999924 -0.000119 0.000060 -17.361584 7.276784 -29.011496 139.999924
7 139.999924 -0.000119 0.000060 -17.269047 7.475030 -28.256031 139.999924
[Rope3_Seg03]
6 139.999924 -0.000119 0.000119 -60.709599 27.658947 -48.243603 139.999924
7 139.999924 -0.000119 0.000119 -59.894394 28.198248 -47.635971 139.999924
[Rope3_Seg04]
6 139.999924 0.000119 0.000000 -20.886761 30.326628 -11.001322 139.999924
7 139.999924 0.000119 0.000000 -20.768660 30.433786 -11.224170 139.999924
[Rope3_Seg05]
6 139.999924 -0.000238 0.000060 -8.998977 27.835897 -5.053650 139.999924
7 139.999924 -0.000238 0.000060 -9.269022 28.069777 -5.797797 139.999924
[Rope3_Seg06]
6 139.999893 -0.000119 -0.000060 -0.698294 10.293516 0.112571 139.999893
7 139.999893 -0.000119 -0.000060 -0.747187 10.471004 -0.096603 139.999893
[Rope3_Seg07]
6 139.999771 0.000060 -0.000119 0.293173 5.136498 0.207891 139.999771
7 139.999771 0.000060 -0.000119 0.279303 5.181285 0.118265 139.999771
[Rope3_Seg08]
6 139.999985 -0.000060 0.000000 0.508681 2.810682 0.098245 139.999985
7 139.999985 -0.000060 0.000000 0.502649 2.825727 0.053637 139.999985
[Rope3_Seg09]
6 90.185997 -0.000179 -0.000060 89.793228 -1.359877 -0.847183 90.185997
7 90.185997 -0.000179 -0.000060 89.793228 -1.359877 -0.847183 90.185997
[R_rear_hand01]
6 103.366196 -6.073594 -10.757982 -171.684540 23.302565 -59.125771 104.101845
7 103.366196 -6.073594 -10.757982 -169.896027 22.621880 -54.548431 104.101845
[R_rear_hand02]
6 100.509819 12.039542 -7.992327 -21.930750 32.777496 56.381863 101.543350
7 100.509819 12.039542 -7.992327 -24.381289 31.099262 51.752331 101.543350
[R_rear_hand03]
6 101.539970 5.215704 5.435467 79.009171 -58.663548 13.282337 101.819031
7 101.539970 5.215704 5.435467 80.187729 -54.464619 11.876325 101.819031
[Rope4_Seg01]
6 -0.000017 -0.000064 -0.000153 52.869011 -24.917036 -108.821304 0.000166
7 -0.000017 -0.000061 -0.000153 52.569569 -24.506495 -108.149117 0.000165
[Rope4_Seg02]
6 139.999985 0.000060 0.000119 12.652225 -41.182373 11.763641 139.999985
7 139.999985 0.000060 0.000119 13.095492 -43.171951 12.910677 139.999985
[Rope4_Seg03]
6 139.999924 0.000000 -0.000238 44.557228 -41.414082 33.771164 139.999924
7 139.999924 0.000000 -0.000238 43.633335 -39.583370 33.322903 139.999924
[Rope4_Seg04]
6 139.999985 0.000000 0.000119 18.049309 -1.983028 23.185240 139.999985
7 139.999985 0.000000 0.000119 17.679264 -2.099661 22.507919 139.999985
[Rope4_Seg05]
6 139.999802 -0.000060 -0.000119 13.631990 5.794804 32.916084 139.999802
7 139.999802 -0.000060 -0.000119 13.974749 5.491131 33.262501 139.999802
[Rope4_Seg06]
6 139.999924 0.000000 0.000060 2.435748 6.558071 15.927941 139.999924
7 139.999924 0.000000 0.000060 2.575616 6.672163 16.395243 139.999924
[Rope4_Seg07]
6 139.999802 0.000000 0.000000 0.129374 2.971778 6.444914 139.999802
7 139.999802 0.000000 0.000000 0.136346 3.020988 6.603802 139.999802
[Rope4_Seg08]
6 139.999924 0.000000 0.000119 -1.671468 1.572724 3.385009 139.999924
7 139.999924 0.000000 0.000119 -1.677531 1.586354 3.456493 139.999924
[Rope4_Seg09]
6 90.185791 0.000060 0.000060 -135.617828 2.228885 0.850567 90.185791
7 90.185791 0.000060 0.000060 -135.617828 2.228885 0.850567 90.185791
[L_rear_hand01]
6 101.696655 -8.392275 -7.654577 -30.719053 -24.879360 141.681381 102.329041
7 101.696655 -8.392275 -7.654577 -31.684452 -23.583008 144.025742 102.329041
[L_rear_hand02]
6 102.726799 -1.568258 5.773216 82.428497 41.230476 171.131027 102.900848
7 102.726799 -1.568258 5.773216 82.701553 38.753956 171.553619 102.900848
[L_rear_hand03]
6 104.552910 9.721220 -10.420293 -164.822937 -19.676035 -139.457687 105.519653
7 104.552910 9.721220 -10.420293 -163.975403 -19.004421 -142.009338 105.519653
